{
  "accessors": [
    {
      "bufferView": 1,
      "componentType": 5126,
      "count": 14502,
      "max": [
        2.1601717472076416,
        0.49044421315193176,
        4.744476795196533
      ],
      "min": [
        -1.7502161264419556,
        -0.279959499835968,
        3.6797640323638916
      ],
      "type": "VEC3"
    },
    {
      "bufferView": 1,
      "byteOffset": 174024,
      "componentType": 5126,
      "count": 14502,
      "max": [
        0.9996610283851624,
        0.9999822378158569,
        0.9998475909233093
      ],
      "min": [
        -0.9998213648796082,
        -0.999965250492096,
        -0.999849796295166
      ],
      "type": "VEC3"
    },
    {
      "bufferView": 2,
      "componentType": 5126,
      "count": 14502,
      "max": [
        1.0,
        0.6627451181411743,
        0.01568627543747425,
        1.0
      ],
      "min": [
        0.9960784316062927,
        0.658823549747467,
        0.01568627543747425,
        1.0
      ],
      "type": "VEC4"
    },
    {
      "bufferView": 0,
      "componentType": 5125,
      "count": 86988,
      "type": "SCALAR"
    },
    {
      "bufferView": 1,
      "byteOffset": 348048,
      "componentType": 5126,
      "count": 4166,
      "max": [
        1.661412239074707,
        -1.0999563932418823,
        3.241666555404663
      ],
      "min": [
        -1.6561378240585327,
        -1.9168696403503418,
        2.5872550010681152
      ],
      "type": "VEC3"
    },
    {
      "bufferView": 1,
      "byteOffset": 398040,
      "componentType": 5126,
      "count": 4166,
      "max": [
        0.9971038103103638,
        0.9999752640724182,
        0.9999345541000366
      ],
      "min": [
        -0.9990091323852539,
        -0.9998749494552612,
        -0.9999379515647888
      ],
      "type": "VEC3"
    },
    {
      "bufferView": 2,
      "byteOffset": 232032,
      "componentType": 5126,
      "count": 4166,
      "max": [
        1.0,
        1.0,
        1.0,
        1.0
      ],
      "min": [
        0.0,
        0.0,
        0.0,
        1.0
      ],
      "type": "VEC4"
    },
    {
      "bufferView": 0,
      "byteOffset": 347952,
      "componentType": 5125,
      "count": 24972,
      "type": "SCALAR"
    },
    {
      "bufferView": 1,
      "byteOffset": 448032,
      "componentType": 5126,
      "count": 3116,
      "max": [
        0.5012728571891785,
        -1.5982102155685425,
        2.7274222373962402
      ],
      "min": [
        -0.5012727975845337,
        -2.0322647094726563,
        2.130570888519287
      ],
      "type": "VEC3"
    },
    {
      "bufferView": 1,
      "byteOffset": 485424,
      "componentType": 5126,
      "count": 3116,
      "max": [
        0.9997984766960144,
        0.9987255930900574,
        0.9999797344207764
      ],
      "min": [
        -0.9997985363006592,
        -0.9990913271903992,
        -0.9997591972351074
      ],
      "type": "VEC3"
    },
    {
      "bufferView": 2,
      "byteOffset": 298688,
      "componentType": 5126,
      "count": 3116,
      "max": [
        1.0,
        1.0,
        1.0,
        1.0
      ],
      "min": [
        0.0,
        0.0,
        0.0,
        1.0
      ],
      "type": "VEC4"
    },
    {
      "bufferView": 0,
      "byteOffset": 447840,
      "componentType": 5125,
      "count": 18432,
      "type": "SCALAR"
    },
    {
      "bufferView": 1,
      "byteOffset": 522816,
      "componentType": 5126,
      "count": 8431,
      "max": [
        1.9854979515075684,
        1.397883415222168,
        4.038928508758545
      ],
      "min": [
        -1.9720802307128906,
        -1.8254756927490234,
        1.1398801803588867
      ],
      "type": "VEC3"
    },
    {
      "bufferView": 1,
      "byteOffset": 623988,
      "componentType": 5126,
      "count": 8431,
      "max": [
        0.9999986290931702,
        0.9995802044868469,
        0.9999920129776001
      ],
      "min": [
        -0.9999640583992004,
        -0.9999838471412659,
        -0.9999566674232483
      ],
      "type": "VEC3"
    },
    {
      "bufferView": 2,
      "byteOffset": 348544,
      "componentType": 5126,
      "count": 8431,
      "max": [
        0.9372549057006836,
        0.7803921699523926,
        0.7803921699523926,
        1.0
      ],
      "min": [
        0.8745098114013672,
        0.5333333611488342,
        0.5333333611488342,
        1.0
      ],
      "type": "VEC4"
    },
    {
      "bufferView": 0,
      "byteOffset": 521568,
      "componentType": 5125,
      "count": 50574,
      "type": "SCALAR"
    },
    {
      "bufferView": 1,
      "byteOffset": 725160,
      "componentType": 5126,
      "count": 36127,
      "max": [
        2.4381890296936035,
        1.843988060951233,
        5.161391258239746
      ],
      "min": [
        -2.1897377967834473,
        -1.4188801050186157,
        0.9093055725097656
      ],
      "type": "VEC3"
    },
    {
      "bufferView": 1,
      "byteOffset": 1158684,
      "componentType": 5126,
      "count": 36127,
      "max": [
        0.9999293088912964,
        0.9999759197235107,
        0.9963182806968689
      ],
      "min": [
        -0.9999873638153076,
        -0.9999994039535522,
        -0.9999164938926697
      ],
      "type": "VEC3"
    },
    {
      "bufferView": 2,
      "byteOffset": 483440,
      "componentType": 5126,
      "count": 36127,
      "max": [
        1.0,
        0.6627451181411743,
        0.01568627543747425,
        1.0
      ],
      "min": [
        0.0,
        0.0,
        0.0,
        1.0
      ],
      "type": "VEC4"
    },
    {
      "bufferView": 0,
      "byteOffset": 723864,
      "componentType": 5125,
      "count": 216750,
      "type": "SCALAR"
    },
    {
      "bufferView": 1,
      "byteOffset": 1592208,
      "componentType": 5126,
      "count": 2979,
      "max": [
        1.7588015794754028,
        1.5835680961608887,
        2.334888458251953
      ],
      "min": [
        -1.699166178703308,
        -2.2240209579467773,
        -0.12720467150211334
      ],
      "type": "VEC3"
    },
    {
      "bufferView": 1,
      "byteOffset": 1627956,
      "componentType": 5126,
      "count": 2979,
      "max": [
        0.9999193549156189,
        0.9999242424964905,
        0.9995628595352173
      ],
      "min": [
        -0.999678909778595,
        -0.9986448884010315,
        -0.9988545179367065
      ],
      "type": "VEC3"
    },
    {
      "bufferView": 2,
      "byteOffset": 1061472,
      "componentType": 5126,
      "count": 2979,
      "max": [
        1.0,
        0.6627451181411743,
        0.01568627543747425,
        1.0
      ],
      "min": [
        1.0,
        0.658823549747467,
        0.0117647061124444,
        1.0
      ],
      "type": "VEC4"
    },
    {
      "bufferView": 0,
      "byteOffset": 1590864,
      "componentType": 5125,
      "count": 17730,
      "type": "SCALAR"
    },
    {
      "bufferView": 1,
      "byteOffset": 1663704,
      "componentType": 5126,
      "count": 435,
      "max": [
        0.2834049165248871,
        1.4069108963012695,
        -0.05771593004465103
      ],
      "min": [
        -0.3029381036758423,
        0.8294705152511597,
        -0.6578900814056396
      ],
      "type": "VEC3"
    },
    {
      "bufferView": 1,
      "byteOffset": 1668924,
      "componentType": 5126,
      "count": 435,
      "max": [
        0.9973138570785522,
        0.9984758496284485,
        0.9969663023948669
      ],
      "min": [
        -0.9974644780158997,
        -0.9988380074501038,
        -0.9968398809432983
      ],
      "type": "VEC3"
    },
    {
      "bufferView": 2,
      "byteOffset": 1109136,
      "componentType": 5126,
      "count": 435,
      "max": [
        1.0,
        0.6627451181411743,
        0.01568627543747425,
        1.0
      ],
      "min": [
        1.0,
        0.6627451181411743,
        0.01568627543747425,
        1.0
      ],
      "type": "VEC4"
    },
    {
      "bufferView": 0,
      "byteOffset": 1661784,
      "componentType": 5125,
      "count": 2598,
      "type": "SCALAR"
    },
    {
      "bufferView": 1,
      "byteOffset": 1674144,
      "componentType": 5126,
      "count": 29454,
      "max": [
        1.1297516822814941,
        1.0898351669311523,
        2.357485294342041
      ],
      "min": [
        -1.129777193069458,
        -1.0752038955688477,
        -1.6294763088226318
      ],
      "type": "VEC3"
    },
    {
      "bufferView": 1,
      "byteOffset": 2027592,
      "componentType": 5126,
      "count": 29454,
      "max": [
        0.9999992251396179,
        0.9999793767929077,
        0.9999350309371948
      ],
      "min": [
        -0.9999985098838806,
        -0.9999721646308899,
        -0.9994018077850342
      ],
      "type": "VEC3"
    },
    {
      "bufferView": 2,
      "byteOffset": 1116096,
      "componentType": 5126,
      "count": 29454,
      "max": [
        1.0,
        0.9960784316062927,
        0.9960784316062927,
        1.0
      ],
      "min": [
        1.0,
        0.658823549747467,
        0.01568627543747425,
        1.0
      ],
      "type": "VEC4"
    },
    {
      "bufferView": 0,
      "byteOffset": 1672176,
      "componentType": 5125,
      "count": 176712,
      "type": "SCALAR"
    }
  ],
  "asset": {
    "extras": {
      "author": "4licia (https://sketchfab.com/4licia)",
      "license": "CC-BY-4.0 (http://creativecommons.org/licenses/by/4.0/)",
      "source": "https://sketchfab.com/3d-models/apeachryan-785c259416ca4270881435180d19b71e",
      "title": "Apeach/Ryan?"
    },
    "generator": "Sketchfab-12.68.0",
    "version": "2.0"
  },
  "bufferViews": [
    {
      "buffer": 0,
      "byteLength": 2379024,
      "name": "floatBufferViews",
      "target": 34963
    },
    {
      "buffer": 0,
      "byteLength": 2381040,
      "byteOffset": 2379024,
      "byteStride": 12,
      "name": "floatBufferViews",
      "target": 34962
    },
    {
      "buffer": 0,
      "byteLength": 1587360,
      "byteOffset": 4760064,
      "byteStride": 16,
      "name": "floatBufferViews",
      "target": 34962
    }
  ],
  "buffers": [
    {
      "byteLength": 6347424,
      "uri": "scene.bin"
    }
  ],
  "materials": [
    {
      "doubleSided": true,
      "name": "material_0",
      "pbrMetallicRoughness": {
        "metallicFactor": 0.0,
        "roughnessFactor": 0.799
      }
    },
    {
      "doubleSided": true,
      "name": "material_1",
      "pbrMetallicRoughness": {
        "metallicFactor": 0.0,
        "roughnessFactor": 0.6
      }
    },
    {
      "doubleSided": true,
      "name": "material_2",
      "pbrMetallicRoughness": {
        "metallicFactor": 0.0,
        "roughnessFactor": 0.799
      }
    },
    {
      "doubleSided": true,
      "name": "material_3",
      "pbrMetallicRoughness": {
        "metallicFactor": 0.0,
        "roughnessFactor": 0.778547247095076
      }
    },
    {
      "doubleSided": true,
      "name": "material_4",
      "pbrMetallicRoughness": {
        "metallicFactor": 0.0,
        "roughnessFactor": 0.799
      }
    },
    {
      "doubleSided": true,
      "name": "material_5",
      "pbrMetallicRoughness": {
        "metallicFactor": 0.0,
        "roughnessFactor": 0.28200000000000003
      }
    },
    {
      "doubleSided": true,
      "name": "material_6",
      "pbrMetallicRoughness": {
        "metallicFactor": 0.0,
        "roughnessFactor": 0.46422717904687427
      }
    },
    {
      "doubleSided": true,
      "name": "material_7",
      "pbrMetallicRoughness": {
        "metallicFactor": 0.0,
        "roughnessFactor": 0.799
      }
    }
  ],
  "meshes": [
    {
      "name": "Object_0",
      "primitives": [
        {
          "attributes": {
            "COLOR_0": 2,
            "NORMAL": 1,
            "POSITION": 0
          },
          "indices": 3,
          "material": 7,
          "mode": 4
        }
      ]
    },
    {
      "name": "Object_1",
      "primitives": [
        {
          "attributes": {
            "COLOR_0": 6,
            "NORMAL": 5,
            "POSITION": 4
          },
          "indices": 7,
          "material": 6,
          "mode": 4
        }
      ]
    },
    {
      "name": "Object_2",
      "primitives": [
        {
          "attributes": {
            "COLOR_0": 10,
            "NORMAL": 9,
            "POSITION": 8
          },
          "indices": 11,
          "material": 5,
          "mode": 4
        }
      ]
    },
    {
      "name": "Object_3",
      "primitives": [
        {
          "attributes": {
            "COLOR_0": 14,
            "NORMAL": 13,
            "POSITION": 12
          },
          "indices": 15,
          "material": 4,
          "mode": 4
        }
      ]
    },
    {
      "name": "Object_4",
      "primitives": [
        {
          "attributes": {
            "COLOR_0": 18,
            "NORMAL": 17,
            "POSITION": 16
          },
          "indices": 19,
          "material": 3,
          "mode": 4
        }
      ]
    },
    {
      "name": "Object_5",
      "primitives": [
        {
          "attributes": {
            "COLOR_0": 22,
            "NORMAL": 21,
            "POSITION": 20
          },
          "indices": 23,
          "material": 2,
          "mode": 4
        }
      ]
    },
    {
      "name": "Object_6",
      "primitives": [
        {
          "attributes": {
            "COLOR_0": 26,
            "NORMAL": 25,
            "POSITION": 24
          },
          "indices": 27,
          "material": 1,
          "mode": 4
        }
      ]
    },
    {
      "name": "Object_7",
      "primitives": [
        {
          "attributes": {
            "COLOR_0": 30,
            "NORMAL": 29,
            "POSITION": 28
          },
          "indices": 31,
          "material": 0,
          "mode": 4
        }
      ]
    }
  ],
  "nodes": [
    {
      "children": [
        1
      ],
      "matrix": [
        1.0,
        0.0,
        0.0,
        0.0,
        0.0,
        2.220446049250313e-16,
        -1.0,
        0.0,
        0.0,
        1.0,
        2.220446049250313e-16,
        0.0,
        0.0,
        0.0,
        0.0,
        1.0
      ],
      "name": "Sketchfab_model"
    },
    {
      "children": [
        2,
        4,
        6,
        8,
        10,
        12,
        14,
        16
      ],
      "name": "zbrush_concat.osgb.cleaner.materialmerger.gles"
    },
    {
      "children": [
        3
      ],
      "name": "/sketchfab-data/processing/models/becb56cf808f46978178709f8d22afee/785c259416ca4270881435180d19b71e/52533ce3d7c147968ebcc9771a6abe36/preprocess/SubTool-7-11538591.OBJ"
    },
    {
      "mesh": 0,
      "name": "Object_3"
    },
    {
      "children": [
        5
      ],
      "name": "/sketchfab-data/processing/models/becb56cf808f46978178709f8d22afee/785c259416ca4270881435180d19b71e/52533ce3d7c147968ebcc9771a6abe36/preprocess/SubTool-6-16138840.OBJ"
    },
    {
      "mesh": 1,
      "name": "Object_5"
    },
    {
      "children": [
        7
      ],
      "name": "/sketchfab-data/processing/models/becb56cf808f46978178709f8d22afee/785c259416ca4270881435180d19b71e/52533ce3d7c147968ebcc9771a6abe36/preprocess/SubTool-5-16138840.OBJ"
    },
    {
      "mesh": 2,
      "name": "Object_7"
    },
    {
      "children": [
        9
      ],
      "name": "/sketchfab-data/processing/models/becb56cf808f46978178709f8d22afee/785c259416ca4270881435180d19b71e/52533ce3d7c147968ebcc9771a6abe36/preprocess/SubTool-4-16138840.OBJ"
    },
    {
      "mesh": 3,
      "name": "Object_9"
    },
    {
      "children": [
        11
      ],
      "name": "/sketchfab-data/processing/models/becb56cf808f46978178709f8d22afee/785c259416ca4270881435180d19b71e/52533ce3d7c147968ebcc9771a6abe36/preprocess/SubTool-3-4026805.OBJ"
    },
    {
      "mesh": 4,
      "name": "Object_11"
    },
    {
      "children": [
        13
      ],
      "name": "/sketchfab-data/processing/models/becb56cf808f46978178709f8d22afee/785c259416ca4270881435180d19b71e/52533ce3d7c147968ebcc9771a6abe36/preprocess/SubTool-2-11693120.OBJ"
    },
    {
      "mesh": 5,
      "name": "Object_13"
    },
    {
      "children": [
        15
      ],
      "name": "/sketchfab-data/processing/models/becb56cf808f46978178709f8d22afee/785c259416ca4270881435180d19b71e/52533ce3d7c147968ebcc9771a6abe36/preprocess/SubTool-1-10233600.OBJ"
    },
    {
      "mesh": 6,
      "name": "Object_15"
    },
    {
      "children": [
        17
      ],
      "name": "/sketchfab-data/processing/models/becb56cf808f46978178709f8d22afee/785c259416ca4270881435180d19b71e/52533ce3d7c147968ebcc9771a6abe36/preprocess/SubTool-0-10233600.OBJ"
    },
    {
      "mesh": 7,
      "name": "Object_17"
    }
  ],
  "scene": 0,
  "scenes": [
    {
      "name": "Sketchfab_Scene",
      "nodes": [
        0
      ]
    }
  ]
}
